<svg xmlns="http://www.w3.org/2000/svg" viewBox="0 0 816.96 293.45"><defs><style>.cls-1{fill:none;stroke:#000}</style></defs><title>Asset 1</title><g id="Layer_2" data-name="Layer 2"><path class="cls-1" d="M6.42 1.32V47.2H.5V1.32zm19.06 5.03h-14v-5h34v5h-14V47.2h-6zM60.27.57c-1.57 5.72-4.49 13-6.4 16.13l-3.81.48a96.39 96.39 0 0 0 4-16zM65.65 40a21 21 0 0 0 10.62 3c6.06 0 9.6-3.2 9.6-7.83 0-4.29-2.45-6.74-8.65-9.12C69.73 23.37 65.1 19.49 65.1 13 65.1 5.88 71 .57 79.94.57a20.85 20.85 0 0 1 10.15 2.25l-1.64 4.83a18.27 18.27 0 0 0-8.71-2.18c-6.26 0-8.64 3.74-8.64 6.87 0 4.29 2.79 6.4 9.12 8.85 7.76 3 11.71 6.74 11.71 13.48 0 7.08-5.24 13.21-16.06 13.21-4.42 0-9.26-1.29-11.71-2.93zm48.81 7.2V1.32h6.47l14.7 23.21a129.82 129.82 0 0 1 8.24 14.91l.14-.07c-.54-6.13-.68-11.71-.68-18.85V1.32h5.58V47.2h-6l-14.57-23.28a145.57 145.57 0 0 1-8.57-15.32l-.2.07c.34 5.79.48 11.3.48 18.92V47.2zm84-23.42c0 15.79-9.6 24.16-21.31 24.16-12.12 0-20.62-9.39-20.62-23.28 0-14.57 9.05-24.1 21.31-24.1 12.52.01 20.62 9.61 20.62 23.22zm-35.6.75c0 9.8 5.31 18.58 14.64 18.58s14.7-8.65 14.7-19.06c0-9.12-4.76-18.65-14.63-18.65s-14.71 9.06-14.71 19.13zm50.31-18.18h-14v-5h34v5h-14V47.2h-6zm45.47 0h-14v-5h34v5h-14V47.2h-6zm31.05-5.03v19.2h22.19V1.32h6V47.2h-6V25.69h-22.19V47.2h-5.92V1.32zm62.22 24.37h-17.84v16.54h19.88v5h-25.8V1.32h24.78v5h-18.86v14.5h17.83zM382 6.35h-14v-5h34v5h-14V47.2h-6zm48.88 19.34H413v16.54h19.88v5h-25.8V1.32h24.82v5H413v14.5h17.83zM448 32.77l-4.73 14.43h-6.13l15.59-45.88h7.15l15.65 45.88h-6.33l-4.9-14.43zm15-4.63l-4.49-13.21c-1-3-1.7-5.72-2.38-8.37h-.14c-.68 2.72-1.43 5.51-2.31 8.3l-4.49 13.27zM520.67 27c-.34-6.4-.75-14.09-.68-19.81h-.2c-1.57 5.38-3.47 11.1-5.79 17.43l-8.1 22.26h-4.5L494 25.07c-2.18-6.47-4-12.39-5.31-17.83h-.14c-.14 5.72-.48 13.41-.88 20.28l-1.24 19.68h-5.65L484 1.32h7.56l7.83 22.19c1.88 5.65 3.44 10.69 4.61 15.49h.2c1.16-4.63 2.79-9.67 4.83-15.45l8.17-22.19h7.56l2.86 45.88h-5.79zm35.54 20.2L544.56 1.32h6.26l5.45 23.21c1.36 5.72 2.59 11.44 3.4 15.86h.14c.75-4.56 2.18-10 3.74-15.93l6.13-23.14h6.19l5.58 23.28c1.29 5.45 2.52 10.89 3.2 15.72h.14c1-5 2.25-10.14 3.68-15.86l6.06-23.14h6.06l-13 45.88h-6.19l-5.8-23.9a138.24 138.24 0 0 1-3-15h-.14a143.36 143.36 0 0 1-3.54 15l-6.52 23.9zm56.02-45.88V47.2h-5.92V1.32zm19.06 5.03h-14v-5h34v5h-14V47.2h-6zm31.05-5.03v19.2h22.19V1.32h6V47.2h-6V25.69h-22.19V47.2h-5.92V1.32zm58.81 5.03h-14v-5h34v5h-14V47.2h-6zm31.05-5.03v19.2h22.19V1.32h6V47.2h-6V25.69H752.2V47.2h-5.92V1.32zm62.22 24.37h-17.84v16.54h19.88v5h-25.8V1.32h24.78v5h-18.86v14.5h17.83zM44.68 83.62a57.39 57.39 0 0 1 10.82-1c5.92 0 9.73 1 12.59 3.34a9.62 9.62 0 0 1 3.81 8.1c0 4.42-2.93 8.3-7.76 10.07v.14c4.36 1.09 9.46 4.7 9.46 11.5a12.37 12.37 0 0 1-3.87 9.23c-3.2 2.93-8.37 4.29-15.86 4.29a69.2 69.2 0 0 1-9.19-.54zm5.92 18.79H56c6.26 0 9.94-3.27 9.94-7.69 0-5.38-4.08-7.49-10.07-7.49a25.41 25.41 0 0 0-5.24.41zm0 22a31.65 31.65 0 0 0 5 .27c6.13 0 11.78-2.25 11.78-8.92 0-6.26-5.38-8.85-11.84-8.85H50.6zm54.73-17.03H87.5v16.54h19.88v5h-25.8V83h24.78v5H87.5v14.5h17.83zm8.92 14.29a21 21 0 0 0 10.62 3c6.06 0 9.6-3.2 9.6-7.83 0-4.29-2.45-6.74-8.65-9.12-7.49-2.65-12.12-6.53-12.12-13 0-7.15 5.92-12.46 14.84-12.46a20.85 20.85 0 0 1 10.14 2.25l-1.63 4.83a18.27 18.27 0 0 0-8.71-2.18c-6.26 0-8.64 3.74-8.64 6.88 0 4.29 2.79 6.4 9.12 8.85 7.76 3 11.71 6.74 11.71 13.48 0 7.08-5.24 13.21-16.06 13.21-4.42 0-9.26-1.29-11.71-2.93zM157.35 88h-14v-5h34v5h-14v40.84h-6zm39.55-4.45a68.68 68.68 0 0 1 11.37-.88c5.85 0 10.14 1.36 12.87 3.81a12.33 12.33 0 0 1 4 9.6c0 4.15-1.23 7.42-3.54 9.8-3.13 3.34-8.24 5-14 5a20.38 20.38 0 0 1-4.77-.41v18.38h-5.93zm5.92 22.12a19.84 19.84 0 0 0 4.9.48c7.15 0 11.5-3.47 11.5-9.8 0-6.06-4.29-9-10.82-9a24.84 24.84 0 0 0-5.58.48zM233.12 83H239v40.91h19.6v5h-25.48zm39.55 31.46l-4.76 14.43h-6.13L277.36 83h7.15l15.66 45.88h-6.33l-4.9-14.43zm15-4.63l-4.49-13.21c-1-3-1.7-5.72-2.38-8.37h-.14c-.68 2.72-1.43 5.51-2.31 8.3l-4.49 13.27zm24.07 19.06v-19.47L297.24 83H304l6.47 12.66c1.77 3.47 3.13 6.26 4.56 9.46h.14c1.29-3 2.86-6 4.63-9.46L326.38 83h6.74l-15.38 26.34v19.54zm49.9-21.51h-17.83v16.54h19.88v5h-25.8V83h24.78v5h-18.86v14.5h17.83zm9.74-23.76a61.67 61.67 0 0 1 11.37-1c6.33 0 10.41 1.16 13.27 3.74a11.43 11.43 0 0 1 3.61 8.71c0 6.06-3.81 10.07-8.64 11.71v.2c3.54 1.23 5.65 4.49 6.74 9.26 1.5 6.4 2.59 10.82 3.54 12.59h-6.13c-.75-1.29-1.77-5.24-3.06-11-1.36-6.33-3.81-8.71-9.19-8.92h-5.59v19.88h-5.92zm5.92 20.9h6.06c6.33 0 10.35-3.47 10.35-8.71 0-5.92-4.29-8.51-10.55-8.58a24.35 24.35 0 0 0-5.85.54zm29.89 17.15a21 21 0 0 0 10.62 3c6.06 0 9.6-3.2 9.6-7.83 0-4.29-2.45-6.74-8.65-9.12-7.49-2.65-12.12-6.53-12.12-13 0-7.15 5.92-12.46 14.84-12.46a20.85 20.85 0 0 1 10.14 2.25L430 89.34a18.27 18.27 0 0 0-8.71-2.18c-6.26 0-8.65 3.74-8.65 6.88 0 4.29 2.79 6.4 9.12 8.85 7.76 3 11.71 6.74 11.71 13.48 0 7.08-5.24 13.21-16.06 13.21-4.42 0-9.26-1.29-11.71-2.93zM461.92 88H448v-5h34v5h-14v40.84h-6zM493 83v19.2h22.19V83h6v45.88h-6v-21.5H493v21.51h-6V83zm45.85 31.46l-4.76 14.43H528L543.54 83h7.15l15.66 45.88H560l-4.9-14.43zm15-4.63l-4.45-13.21c-1-3-1.7-5.72-2.38-8.37h-.14c-.68 2.72-1.43 5.51-2.31 8.3l-4.49 13.27zM576.56 88h-14v-5h34v5h-14v40.84h-6zm44.59 40.89L609.51 83h6.26l5.45 23.21c1.36 5.72 2.59 11.44 3.4 15.86h.14c.75-4.56 2.18-10 3.74-15.93L634.63 83h6.19l5.58 23.28c1.29 5.45 2.52 10.89 3.2 15.72h.14c1-5 2.25-10.14 3.68-15.86L659.47 83h6.06l-13 45.88h-6.19L640.55 105a138.24 138.24 0 0 1-3-15h-.14a143.36 143.36 0 0 1-3.54 15l-6.53 23.89zM677.18 83v45.88h-5.92V83zm10.35 45.89V83H694l14.7 23.21a129.82 129.82 0 0 1 8.24 14.91l.14-.07c-.54-6.13-.68-11.71-.68-18.85V83h5.6v45.88h-6l-14.57-23.28a145.66 145.66 0 0 1-8.58-15.32l-.2.07c.34 5.79.48 11.3.48 18.92v19.6zm43.97-7.22a21 21 0 0 0 10.62 3c6.06 0 9.6-3.2 9.6-7.83 0-4.29-2.45-6.74-8.64-9.12-7.49-2.65-12.12-6.53-12.12-13 0-7.15 5.92-12.46 14.84-12.46a20.84 20.84 0 0 1 10.14 2.25l-1.63 4.83a18.28 18.28 0 0 0-8.71-2.18c-6.26 0-8.65 3.74-8.65 6.88 0 4.29 2.79 6.4 9.12 8.85 7.76 3 11.71 6.74 11.71 13.48 0 7.08-5.24 13.21-16.06 13.21-4.42 0-9.26-1.29-11.71-2.93zm30.3 15.59a97.81 97.81 0 0 0 4.08-16.26l6.67-.68c-1.57 5.79-4.56 13.34-6.47 16.54zM33.55 164.7v45.88h-5.92V164.7zm19.06 5.04h-14v-5h34v5h-14v40.84h-6zM87.4 164c-1.57 5.72-4.49 13-6.4 16.13l-3.81.48a96.39 96.39 0 0 0 4-16zm5.38 39.37a21 21 0 0 0 10.62 3c6.06 0 9.6-3.2 9.6-7.83 0-4.29-2.45-6.74-8.65-9.12-7.49-2.65-12.12-6.53-12.12-13 0-7.15 5.92-12.46 14.84-12.46a20.85 20.85 0 0 1 10.14 2.25l-1.63 4.79a18.27 18.27 0 0 0-8.71-2.18c-6.26 0-8.64 3.74-8.64 6.88 0 4.29 2.79 6.4 9.12 8.85 7.76 3 11.71 6.74 11.71 13.48 0 7.08-5.24 13.21-16.06 13.21-4.42 0-9.26-1.29-11.71-2.93zm54.73-33.63h-14v-5h34v5h-14v40.84h-6zm31.04-5.04v19.2h22.19v-19.2h6v45.88h-6v-21.51h-22.19v21.51h-5.92V164.7zm62.22 24.37h-17.83v16.54h19.88v5H217V164.7h24.78v5h-18.84v14.5h17.83zm24.17-23.82a68.68 68.68 0 0 1 11.37-.88c5.85 0 10.14 1.36 12.87 3.81a12.33 12.33 0 0 1 4 9.6c0 4.15-1.23 7.42-3.54 9.8-3.13 3.34-8.24 5-14 5a20.38 20.38 0 0 1-4.77-.41v18.38h-5.92zm5.92 22.12a19.84 19.84 0 0 0 4.9.48c7.15 0 11.5-3.47 11.5-9.8 0-6.06-4.29-9-10.82-9a24.84 24.84 0 0 0-5.58.48zm30.3-22.67h5.92v40.91h19.6v5h-25.52zm39.55 31.45l-4.76 14.43h-6.13l15.59-45.88h7.15l15.66 45.88h-6.33L357 196.15zm15-4.63l-4.49-13.21c-1-3-1.7-5.72-2.38-8.37h-.14c-.68 2.72-1.43 5.51-2.31 8.3l-4.49 13.27zm24.08 19.06v-19.47l-14.5-26.41H372l6.47 12.66c1.77 3.47 3.13 6.26 4.56 9.46h.14c1.29-3 2.86-6 4.63-9.46l6.6-12.66h6.74L385.78 191v19.54zm49.89-21.51h-17.83v16.54h19.88v5h-25.8V164.7h24.78v5h-18.86v14.5h17.83zm9.74-23.75a61.67 61.67 0 0 1 11.37-1c6.33 0 10.41 1.16 13.27 3.74a11.43 11.43 0 0 1 3.61 8.71c0 6.06-3.81 10.07-8.64 11.71v.2c3.54 1.23 5.65 4.49 6.74 9.26 1.5 6.4 2.59 10.82 3.54 12.59h-6.13c-.75-1.29-1.77-5.24-3.06-11-1.36-6.33-3.81-8.71-9.19-8.92h-5.58v19.88h-5.92zm5.92 20.9h6.06c6.33 0 10.35-3.47 10.35-8.71 0-5.92-4.29-8.51-10.55-8.58a24.35 24.35 0 0 0-5.85.54zm29.89 17.15a21 21 0 0 0 10.62 3c6.06 0 9.6-3.2 9.6-7.83 0-4.29-2.45-6.74-8.65-9.12-7.49-2.65-12.12-6.53-12.12-13 0-7.15 5.92-12.46 14.84-12.46a20.85 20.85 0 0 1 10.14 2.25L498 171a18.27 18.27 0 0 0-8.71-2.18c-6.26 0-8.65 3.74-8.65 6.88 0 4.29 2.79 6.4 9.12 8.85 7.76 3 11.71 6.74 11.71 13.48 0 7.08-5.24 13.21-16.06 13.21-4.42 0-9.26-1.29-11.71-2.93zm53.85 7.21l-11.64-45.88h6.26l5.45 23.21c1.36 5.72 2.59 11.44 3.4 15.86h.14c.75-4.56 2.18-10 3.74-15.93l6.13-23.14h6.19l5.58 23.3c1.29 5.45 2.52 10.89 3.2 15.72h.14c1-5 2.25-10.14 3.68-15.86l6.06-23.14h6.06l-13 45.88h-6.19l-5.79-23.89a138.24 138.24 0 0 1-3-15h-.14a143.36 143.36 0 0 1-3.54 15l-6.53 23.89zm56.02-45.88v45.88h-5.92V164.7zm19.07 5.04h-14v-5h34v5h-14v40.84h-6zm31.04-5.04v19.2h22.19v-19.2h6v45.88h-6v-21.51h-22.19v21.51h-5.92V164.7zm58.79 5.04h-14v-5h34v5h-14v40.84h-6zm31.07-5.04v19.2h22.19v-19.2h6v45.88h-6v-21.51h-22.19v21.51h-5.92V164.7zm62.22 24.37h-17.84v16.54h19.88v5h-25.8V164.7h24.78v5h-18.86v14.5h17.83zM93.73 247a57.39 57.39 0 0 1 10.82-1c5.92 0 9.73 1 12.59 3.34a9.62 9.62 0 0 1 3.81 8.1c0 4.42-2.93 8.3-7.76 10.07v.14c4.36 1.09 9.46 4.7 9.46 11.5a12.37 12.37 0 0 1-3.88 9.19c-3.2 2.93-8.37 4.29-15.86 4.29a69.2 69.2 0 0 1-9.19-.54zm5.92 18.79H105c6.26 0 9.94-3.27 9.94-7.69 0-5.38-4.08-7.49-10.07-7.49a25.4 25.4 0 0 0-5.24.41zm0 22a31.65 31.65 0 0 0 5 .27c6.13 0 11.78-2.25 11.78-8.92 0-6.26-5.38-8.85-11.84-8.85h-4.9zm54.73-17.03h-17.83v16.54h19.88v5h-25.8v-45.91h24.77v5h-18.85v14.5h17.83zm8.92 14.3a21 21 0 0 0 10.62 3c6.06 0 9.6-3.2 9.6-7.83 0-4.29-2.45-6.74-8.65-9.12-7.49-2.65-12.12-6.53-12.12-13 0-7.15 5.92-12.46 14.84-12.46a20.85 20.85 0 0 1 10.14 2.25l-1.63 4.83a18.27 18.27 0 0 0-8.71-2.18c-6.26 0-8.65 3.74-8.65 6.88 0 4.29 2.79 6.4 9.12 8.85 7.76 3 11.71 6.74 11.71 13.48 0 7.08-5.24 13.21-16.06 13.21-4.42 0-9.26-1.29-11.71-2.93zm43.1-33.63h-14v-5h34v5h-14v40.84h-6zm45.47 0h-14v-5h34v5h-14v40.84h-6zm48.88 19.33h-17.84v16.54h19.88v5H277v-45.91h24.78v5h-18.87v14.5h17.83zm17.15 7.08l-4.76 14.43H307l15.59-45.88h7.15l15.66 45.88h-6.33l-4.9-14.43zm15-4.63L328.45 260c-1-3-1.7-5.72-2.38-8.37h-.14c-.68 2.72-1.43 5.51-2.31 8.3l-4.49 13.27zm57.64-1.08c-.34-6.4-.75-14.09-.68-19.81h-.2c-1.57 5.38-3.47 11.1-5.79 17.43l-8.1 22.25h-4.49l-7.42-21.85c-2.18-6.47-4-12.39-5.31-17.83h-.14c-.14 5.72-.48 13.41-.88 20.28l-1.23 19.67h-5.65l3.2-45.88h7.56l7.83 22.19c1.91 5.65 3.47 10.69 4.63 15.45h.2c1.16-4.63 2.79-9.67 4.83-15.45l8.17-22.19h7.56l2.86 45.88h-5.79zm36.46-20.7h-14v-5h34v5h-14v40.84h-6zm31-5.04v19.2h22.2v-19.2h6v45.88h-6v-21.51H458v21.51h-5.92v-45.88zm45.89 31.45l-4.76 14.43H493l15.59-45.88h7.15l15.66 45.88h-6.33l-4.9-14.43zm15-4.63L514.44 260c-1-3-1.7-5.72-2.38-8.37h-.14c-.68 2.72-1.43 5.51-2.31 8.3l-4.49 13.27zm22.71-21.78h-14v-5h34v5h-14v40.84h-6zm44.59 40.84l-11.64-45.88h6.26l5.45 23.21c1.36 5.72 2.59 11.44 3.4 15.86h.14c.75-4.56 2.18-10 3.74-15.93l6.13-23.14h6.19l5.58 23.28c1.29 5.45 2.52 10.89 3.2 15.72h.14c1-5 2.25-10.14 3.68-15.86l6.06-23.14h6.06l-13 45.88h-6.19l-5.79-23.89a138.24 138.24 0 0 1-3-15h-.14a143.36 143.36 0 0 1-3.54 15l-6.53 23.89zm56.03-45.88v45.88h-5.92v-45.88zm10.35 45.88v-45.88H659l14.7 23.21a129.9 129.9 0 0 1 8.3 14.91l.14-.07c-.54-6.13-.68-11.71-.68-18.85v-19.2H687v45.88h-6L666.46 269a145.57 145.57 0 0 1-8.58-15.32l-.2.07c.34 5.79.48 11.3.48 18.92v19.6zm43.98-7.21a21 21 0 0 0 10.62 3c6.06 0 9.6-3.2 9.6-7.83 0-4.29-2.45-6.74-8.64-9.12-7.49-2.65-12.12-6.53-12.12-13 0-7.15 5.92-12.46 14.84-12.46a20.84 20.84 0 0 1 10.15 2.24l-1.63 4.83a18.28 18.28 0 0 0-8.71-2.18c-6.26 0-8.65 3.74-8.65 6.88 0 4.29 2.79 6.4 9.12 8.85 7.76 3 11.71 6.74 11.71 13.48 0 7.08-5.24 13.21-16.06 13.21-4.42 0-9.26-1.29-11.71-2.93z" id="Layer_1-2" data-name="Layer 1"/></g></svg>