<svg xmlns="http://www.w3.org/2000/svg" viewBox="0 0 868.56 384.9"><defs><style>.cls-1{fill:#fff;stroke:#000;stroke-miterlimit:10}</style></defs><title>Asset 8</title><g id="Layer_2" data-name="Layer 2"><path class="cls-2" d="M40.06 85.17V50.11L13.19 1.17h12.49l12 23.46c3.28 6.43 5.8 11.61 8.45 17.54h.25c2.4-5.55 5.3-11.1 8.58-17.54L67.18 1.17h12.13L51.06 49.4v35.77zm115.45-42.39c0 28.77-17.48 44-38.81 44-22.07 0-37.57-17.11-37.57-42.41C79.14 17.86 95.63.5 117.94.5c22.82 0 37.57 17.5 37.57 42.28zm-64.84 1.37C90.67 62 100.34 78 117.32 78s26.78-15.75 26.78-34.72c0-16.61-8.68-34-26.66-34S90.67 25.79 90.67 44.15zm89.39-41.98v49.47c0 18.72 8.35 26.66 19.56 26.66 12.46 0 20.44-8.18 20.44-26.66V2.17h11V50.9c0 25.67-13.6 36.21-31.81 36.21-17.22 0-30.19-9.8-30.19-35.71V2.17zm166.42 46.69c-.61-11.53-1.35-25.39-1.23-35.69h-.5c-2.84 9.76-6.3 20.13-10.5 31.62l-14.7 40.38h-8.15l-13.46-39.65c-4-11.73-7.29-22.48-9.63-32.36h-.38c-.25 10.3-.86 24.16-1.59 36.55l-2.21 35.45H273.8l5.86-84h13.6l14.34 40.68c3.49 10.36 6.36 19.59 8.48 28.32h.37c2.12-8.48 5.12-17.72 8.86-28.32l15-40.68h13.6l5.23 84h-10.58zm40.58-47.69v84h-11v-84zm16.83 71.12a38.23 38.23 0 0 0 19.34 5.46c11 0 17.48-5.83 17.48-14.26 0-7.81-4.46-12.28-15.75-16.62C411.32 42 402.89 35 402.89 23.19c0-13 10.79-22.69 27-22.69 8.56 0 14.75 2 18.48 4.09l-3 8.8a33.29 33.29 0 0 0-15.87-4c-11.41 0-15.75 6.82-15.75 12.52 0 7.81 5.08 11.66 16.62 16.12 14.13 5.46 21.33 12.28 21.33 24.55 0 12.9-9.55 24.05-29.26 24.05-8.06 0-16.86-2.36-21.33-5.33zm61.11 0a38.23 38.23 0 0 0 19.34 5.46c11 0 17.48-5.83 17.48-14.26 0-7.81-4.46-12.28-15.75-16.62C472.46 42 464 35 464 23.19c0-13 10.79-22.69 27-22.69 8.56 0 14.75 2 18.48 4.09l-3 8.8a33.29 33.29 0 0 0-15.87-4c-11.41 0-15.75 6.82-15.75 12.52 0 7.81 5.08 11.66 16.62 16.12 14.14 5.46 21.33 12.28 21.33 24.55 0 12.9-9.55 24.05-29.26 24.05-8.06 0-16.86-2.36-21.33-5.33zm108.06-57.12h.39l-13.78 7.44-2.07-8.17 17.32-9.27h9.15v80h-11zm94.19 29.1c0 27.4-10.17 42.53-28 42.53-15.75 0-26.41-14.75-26.66-41.41 0-27 11.66-41.91 28-41.91 16.99 0 26.66 15.12 26.66 40.79zm-43.77 1.24c0 21 6.45 32.86 16.37 32.86 11.16 0 16.49-13 16.49-33.6 0-19.84-5.08-32.86-16.37-32.86-9.54 0-16.48 11.65-16.48 33.6zm107.38-1.24c0 27.4-10.17 42.53-28 42.53-15.75 0-26.41-14.75-26.66-41.41 0-27 11.66-41.91 28-41.91 16.99 0 26.66 15.12 26.66 40.79zm-43.77 1.24c0 21 6.45 32.86 16.37 32.86 11.16 0 16.49-13 16.49-33.6 0-19.84-5.08-32.86-16.37-32.86-9.58 0-16.49 11.65-16.49 33.6zm90.15-17.98c0 17-8.93 25.42-19.34 25.42-10 0-18.72-8.06-18.85-24.3s8.8-25.17 19.47-25.17c11.28 0 18.72 8.68 18.72 24.05zm-29.51.74c-.25 10.29 3.6 18.1 10.42 18.1 7.19 0 10.42-7.69 10.42-18.35 0-9.8-2.85-18-10.42-18-6.82-.02-10.42 8.09-10.42 18.25zm9.53 57.89l47.18-83h6.92l-47.18 83zm72.43-25.28c0 17-8.93 25.42-19.22 25.42-10 0-18.72-8.06-18.85-24.18s8.8-25.29 19.47-25.29c11.28 0 18.6 8.68 18.6 24.05zm-29.51.74c-.12 10.29 3.84 18.1 10.54 18.1 7.19 0 10.42-7.69 10.42-18.35 0-9.8-2.85-18-10.42-18-6.82.03-10.54 8.09-10.54 18.26zM145.22 191.58c0 28.77-17.48 44-38.81 44-22.07 0-37.57-17.11-37.57-42.41 0-26.53 16.49-43.89 38.81-43.89 22.81.02 37.57 17.5 37.57 42.3zm-64.85 1.36c0 17.86 9.63 33.86 26.63 33.86s26.78-15.75 26.78-34.72c0-16.61-8.68-34-26.66-34s-26.75 16.51-26.75 34.87zm78.69-41.77h45v9h-34v27h32v9h-32v38h-11zm98 9h-26v-9h62v9h-25v74h-11zm56-10v35h40v-35h12v84h-12v-39h-40v39h-11v-84zm113 45h-32v30h36v9h-47v-83h45v9h-34v26h32zm43.05 25.92a38.23 38.23 0 0 0 19.34 5.46c11 0 17.48-5.83 17.48-14.26 0-7.81-4.46-12.28-15.75-16.62-13.64-4.84-22.07-11.9-22.07-23.68 0-13 10.79-22.69 27-22.69 8.56 0 14.75 2 18.48 4.09l-3 8.8a33.29 33.29 0 0 0-15.87-4c-11.41 0-15.75 6.82-15.75 12.52 0 7.81 5.08 11.66 16.62 16.12 14.14 5.46 21.33 12.28 21.33 24.55 0 12.9-9.55 24.05-29.26 24.05-8.06 0-16.86-2.36-21.33-5.33zm73.95-70.92v35h40v-35h11v84h-11v-39h-40v39h-11v-84zM684 191.58c0 28.77-17.48 44-38.81 44-22.07 0-37.57-17.11-37.57-42.41 0-26.53 16.49-43.89 38.81-43.89 22.81.02 37.57 17.5 37.57 42.3zm-64.85 1.36c0 17.85 9.67 33.85 26.66 33.85s26.78-15.75 26.78-34.72c0-16.61-8.68-34-26.66-34s-26.79 16.52-26.79 34.88zm91.91-32.77h-26v-9h62v9h-25v74h-11zm43.24 60.92a38.23 38.23 0 0 0 19.34 5.46c11 0 17.48-5.83 17.48-14.26 0-7.81-4.46-12.28-15.75-16.62-13.64-4.84-22.07-11.9-22.07-23.68 0-13 10.79-22.69 27-22.69 8.56 0 14.75 2 18.48 4.09l-3 8.8a33.29 33.29 0 0 0-15.87-4c-11.41 0-15.75 6.82-15.75 12.52 0 7.81 5.08 11.66 16.62 16.12 14.14 5.46 21.33 12.28 21.33 24.55 0 12.9-9.55 24.05-29.26 24.05-8.06 0-16.86-2.36-21.33-5.33zM27.06 383.17v-36.25L.84 299.17H13l11.69 22.89c3.2 6.28 5.66 11.32 8.25 17.11h.25c2.34-5.42 5.17-10.83 8.37-17.11l11.94-22.89h12.81L38.06 347.4v35.77zm115.68-42.79c0 28.77-17.48 44-38.81 44-22.07 0-37.57-17.11-37.57-42.41 0-26.53 16.49-43.89 38.81-43.89 22.83.02 37.57 17.5 37.57 42.3zm-64.85 1.36c0 17.85 9.67 33.85 26.66 33.85s26.78-15.75 26.78-34.72c0-16.61-8.68-34-26.66-34s-26.78 16.52-26.78 34.88zm89.17-42.57v49.47c0 18.72 8.35 26.66 19.56 26.66 12.46 0 20.44-8.18 20.44-26.66v-49.47h11v48.73c0 25.67-13.6 36.21-31.81 36.21-17.22 0-30.19-9.8-30.19-35.71v-49.23zm96 1.41a154.48 154.48 0 0 1 22.94-1.74c15.5 0 26.53 3.6 33.85 10.42s11.78 16.49 11.78 30-4.22 24.8-12 32.49-20.71 12-37 12a174.08 174.08 0 0 1-19.59-1zm11 73.9a68.1 68.1 0 0 0 10.91.62c23.06 0 35.59-12.9 35.59-35.46.12-19.71-11-32.24-33.85-32.24a61.27 61.27 0 0 0-12.65 1.12zm143.21-34.1c0 28.77-17.48 44-38.81 44-22.07 0-37.57-17.11-37.57-42.41 0-26.53 16.49-43.89 38.81-43.89 22.82.02 37.57 17.5 37.57 42.3zm-64.85 1.36c0 17.85 9.67 33.85 26.66 33.85s26.78-15.75 26.78-34.72c0-16.61-8.68-34-26.66-34s-26.78 16.52-26.78 34.88zm78.64 41.43v-84h12.88l26.34 42.5A239.37 239.37 0 0 1 485 369l.24-.12c-1-11.22-1.22-21.44-1.22-34.52v-35.19h10v84H482l-26.1-42.62a268.23 268.23 0 0 1-15.37-28l-.37.12c.61 10.59.85 20.69.85 34.65v35.89zm94.59-85.07c-2.85 10.42-8.18 23.68-11.66 29.39l-6.94.87a175.56 175.56 0 0 0 7.32-29.14zm33.41 11.07h-26v-10h62v10h-25v74h-11zm82 0h-25v-10h62v10h-26v74h-11zm50.54 48l-8.58 26h-11.6l28.54-84H713l28.66 84h-12l-8.83-26zm27.14-9l-8.12-23.87c-1.85-5.41-3.08-10.33-4.31-15.13h-.25c-1.23 4.92-2.58 10-4.18 15l-8.12 24zm35.32-49h11v40h.37c2.21-3.2 4.43-6.15 6.52-8.86l25.35-31.14h14.54L781 334.81l33.25 48.36h-13l-28.07-41.25-8.09 9.22v32h-11zm110 45h-32v30h36v9h-47v-84h45v9h-34v27h32z" id="Layer_1-2" data-name="Layer 1"/></g></svg>