<svg xmlns="http://www.w3.org/2000/svg" viewBox="0 0 1254.83 153.43"><defs><style>.cls-1{fill:none;stroke:#000}</style></defs><title>Asset 2</title><g id="Layer_2" data-name="Layer 2"><path class="cls-1" d="M45 53.16a50.49 50.49 0 0 1-16.64 3c-8.2 0-15-2.09-20.26-7.16C3.39 44.48.5 37.24.5 28.8.58 12.64 11.68.82 29.85.82a33.5 33.5 0 0 1 13.5 2.49L41.66 9a28.09 28.09 0 0 0-12-2.33C16.5 6.69 7.9 14.89 7.9 28.48c0 13.75 8.28 21.87 20.9 21.87 4.58 0 7.72-.64 9.33-1.45V32.74h-11v-5.63H45zm57-25.24c0 18.65-11.34 28.54-25.17 28.54-14.31 0-24.36-11.09-24.36-27.5C52.43 11.76 63.13.5 77.6.5 92.39.5 102 11.84 102 27.92zm-42 .88c0 11.58 6.27 21.95 17.29 21.95s17.27-10.21 17.27-22.51c0-10.77-5.63-22-17.29-22S59.91 16.9 59.91 28.8zm97.35-.88c0 18.65-11.34 28.54-25.17 28.54-14.31 0-24.36-11.09-24.36-27.5C107.83 11.76 118.52.5 133 .5c14.78 0 24.35 11.34 24.35 27.42zm-42 .88c0 11.58 6.27 21.95 17.29 21.95S150 40.54 150 28.24c0-10.77-5.63-22-17.29-22S115.3 16.9 115.3 28.8zm51.08-26.69A100.14 100.14 0 0 1 181.31 1c10 0 17.21 2.33 21.95 6.75s7.64 10.69 7.64 19.46-2.73 16.08-7.8 21.06-13.43 7.8-24 7.8a112.94 112.94 0 0 1-12.7-.64zm7 47.92a44.2 44.2 0 0 0 7.08.4c15 0 23.07-8.36 23.07-23 .08-12.78-7.16-20.9-21.95-20.9a39.72 39.72 0 0 0-8.2.72zM237 2a81 81 0 0 1 13.43-1c6.91 0 12 1.61 15.2 4.5a14.57 14.57 0 0 1 4.74 11.34c0 4.9-1.45 8.76-4.18 11.58-3.7 3.94-9.73 5.95-16.56 5.95a24.08 24.08 0 0 1-5.63-.48v21.68h-7zm7 26.13a23.46 23.46 0 0 0 5.79.56c8.44 0 13.59-4.1 13.59-11.58 0-7.16-5.06-10.61-12.78-10.61a29.38 29.38 0 0 0-6.59.56zm35.79-26.75h7V49.7h23.15v5.87h-30.15zm46.71 37.15l-5.63 17h-7.24L332 1.38h8.44L359 55.57h-7.5l-5.79-17zm17.77-5.47L339 17.46c-1.21-3.54-2-6.75-2.81-9.89H336c-.8 3.22-1.69 6.51-2.73 9.81l-5.31 15.68zm28.37 22.51v-23L355.52 1.38h8l7.64 15c2.09 4.1 3.7 7.4 5.39 11.18h.16c1.53-3.54 3.38-7.08 5.47-11.18l7.8-15h8L379.72 32.5v23.07zm58.93-25.4h-21.06V49.7H434v5.87h-30.49V1.38h29.27v5.87h-22.27v17.13h21.06zm11.5-28.06A72.85 72.85 0 0 1 456.49 1c7.48 0 12.3 1.37 15.68 4.42a13.49 13.49 0 0 1 4.26 10.29c0 7.16-4.5 11.9-10.21 13.83v.24c4.18 1.45 6.67 5.31 8 10.93 1.77 7.56 3.06 12.78 4.18 14.87h-7.24c-.88-1.53-2.09-6.19-3.62-12.94-1.61-7.48-4.5-10.29-10.85-10.53h-6.59v23.46h-7zm7 24.68h7.16c7.48 0 12.22-4.1 12.22-10.29 0-7-5.06-10-12.46-10.13a28.76 28.76 0 0 0-6.91.64zm35.28 20.26a24.79 24.79 0 0 0 12.54 3.54c7.16 0 11.34-3.78 11.34-9.25 0-5.06-2.89-8-10.21-10.77-8.84-3.14-14.31-7.72-14.31-15.36 0-8.44 7-14.71 17.53-14.71a24.62 24.62 0 0 1 12 2.65l-1.93 5.71A21.58 21.58 0 0 0 502 6.29c-7.4 0-10.21 4.42-10.21 8.12 0 5.06 3.3 7.56 10.77 10.45 9.17 3.54 13.83 8 13.83 15.92 0 8.36-6.19 15.6-19 15.6-5.23 0-10.93-1.53-13.83-3.46zM550 1.38v54.19h-7V1.38zm12.21 54.19V1.38h7.64l17.36 27.42a153.4 153.4 0 0 1 9.73 17.61l.16-.08c-.64-7.24-.8-13.83-.8-22.27V1.38h6.59v54.19h-7.08l-17.21-27.5A172.08 172.08 0 0 1 568.48 10l-.24.08c.4 6.83.56 13.35.56 22.35v23.14zm51.93-8.52a24.79 24.79 0 0 0 12.54 3.54c7.16 0 11.34-3.78 11.34-9.25 0-5.06-2.89-8-10.21-10.77-8.81-3.14-14.31-7.72-14.31-15.36C613.5 6.77 620.49.5 631 .5a24.62 24.62 0 0 1 12 2.65l-1.93 5.71a21.58 21.58 0 0 0-10.29-2.57c-7.4 0-10.21 4.42-10.21 8.12 0 5.06 3.3 7.56 10.77 10.45 9.17 3.54 13.83 8 13.83 15.92 0 8.36-6.19 15.6-19 15.6-5.23 0-10.93-1.53-13.83-3.46zM654.74 2a81 81 0 0 1 13.43-1c6.92 0 12 1.61 15.2 4.5a14.57 14.57 0 0 1 4.74 11.34c0 4.9-1.45 8.76-4.18 11.58-3.7 3.94-9.73 5.95-16.56 5.95a24.09 24.09 0 0 1-5.63-.48v21.68h-7zm7 26.13a23.46 23.46 0 0 0 5.79.56c8.44 0 13.59-4.1 13.59-11.58 0-7.16-5.06-10.61-12.78-10.61a29.38 29.38 0 0 0-6.59.56zm42.77-26.75v54.19h-7V1.38zm12.22.73A72.85 72.85 0 0 1 730.15 1c7.48 0 12.3 1.37 15.68 4.42a13.5 13.5 0 0 1 4.26 10.29c0 7.16-4.5 11.9-10.21 13.83v.24c4.18 1.45 6.67 5.31 8 10.93 1.77 7.56 3.06 12.78 4.18 14.87h-7.24c-.88-1.53-2.09-6.19-3.62-12.94-1.61-7.48-4.5-10.29-10.85-10.53h-6.59v23.46h-7zm7 24.68h7.16c7.48 0 12.22-4.1 12.22-10.29 0-7-5.07-10-12.46-10.13a28.75 28.75 0 0 0-6.91.64zM788 30.17h-21V49.7h23.48v5.87H760V1.38h29.26v5.87H767v17.13h21zm35.57-22.84h-16.48V1.38h40.12v5.95h-16.57v48.24h-7.08zm36.66-5.95v22.68h26.21V1.38h7.08v54.19h-7.08v-25.4h-26.21v25.4h-7V1.38zm73.48 28.79h-21.07V49.7h23.48v5.87h-30.47V1.38h29.26v5.87h-22.27v17.13h21.06zm57.16 1.61c-.4-7.56-.88-16.64-.8-23.4h-.24C988 14.73 985.72 21.48 983 29l-9.57 26.29h-5.31l-8.76-25.81c-2.57-7.64-4.74-14.63-6.27-21.06h-.16c-.16 6.75-.56 15.84-1 24l-1.45 23.24h-6.67l3.78-54.19h8.92l9.25 26.21c2.25 6.67 4.1 12.62 5.47 18.25h.24c1.37-5.47 3.3-11.42 5.71-18.25l9.65-26.21h8.92l3.38 54.19h-6.83zm18 15.27a24.78 24.78 0 0 0 12.54 3.54c7.16 0 11.34-3.78 11.34-9.25 0-5.06-2.89-8-10.21-10.77-8.84-3.14-14.31-7.72-14.31-15.36 0-8.44 7-14.71 17.53-14.71a24.62 24.62 0 0 1 12 2.65l-1.93 5.71a21.58 21.58 0 0 0-10.29-2.57c-7.4 0-10.21 4.42-10.21 8.12 0 5.06 3.3 7.56 10.77 10.45 9.17 3.54 13.83 8 13.83 15.92 0 8.36-6.19 15.6-19 15.6-5.23 0-10.93-1.53-13.83-3.46zm68.66-16.88h-21.06V49.7h23.48v5.87h-30.47V1.38h29.26v5.87h-22.27v17.13h21.06zM1089 1.38h7V49.7h23.16v5.87H1089zm45.13 54.19l-17.69-54.19h7.56l8.44 26.69c2.33 7.32 4.34 13.91 5.79 20.26h.16c1.53-6.27 3.78-13.1 6.19-20.18l9.17-26.77h7.48l-19.38 54.19zm61.02-25.4h-21.06V49.7h23.48v5.87h-30.47V1.38h29.26v5.87h-22.27v17.13h21.06zm10.53 16.88a24.78 24.78 0 0 0 12.54 3.54c7.16 0 11.34-3.78 11.34-9.25 0-5.06-2.89-8-10.21-10.77-8.84-3.14-14.31-7.72-14.31-15.36 0-8.44 7-14.71 17.53-14.71a24.62 24.62 0 0 1 12 2.65l-1.93 5.71a21.58 21.58 0 0 0-10.29-2.57c-7.4 0-10.21 4.42-10.21 8.12 0 5.06 3.3 7.56 10.77 10.45 9.17 3.54 13.83 8 13.83 15.92 0 8.36-6.19 15.6-19 15.6-5.23 0-10.93-1.53-13.83-3.46zm35.77 18.41a115.74 115.74 0 0 0 4.82-19.22l7.88-.8c-1.85 6.83-5.39 15.76-7.64 19.54zM141.83 149.63a50.47 50.47 0 0 1-16.64 3c-8.2 0-15-2.09-20.26-7.16-4.66-4.5-7.56-11.74-7.56-20.18.08-16.16 11.18-28 29.35-28a33.5 33.5 0 0 1 13.51 2.49l-1.69 5.71a28.09 28.09 0 0 0-12-2.33c-13.19 0-21.79 8.2-21.79 21.79 0 13.75 8.28 21.87 20.9 21.87 4.58 0 7.72-.64 9.33-1.45v-16.16H124v-5.63h17.85zm10.69-51.05a72.85 72.85 0 0 1 13.43-1.13c7.48 0 12.3 1.37 15.68 4.42a13.5 13.5 0 0 1 4.26 10.29c0 7.16-4.5 11.9-10.21 13.83v.24c4.18 1.45 6.67 5.31 8 10.93 1.77 7.56 3.06 12.78 4.18 14.87h-7.24c-.88-1.53-2.09-6.19-3.62-12.94-1.61-7.48-4.5-10.29-10.85-10.53h-6.59V152h-7zm7 24.68h7.16c7.48 0 12.22-4.1 12.22-10.29 0-7-5.06-10-12.46-10.13a28.76 28.76 0 0 0-6.91.64zm64.31 3.38h-21.06v19.54h23.48V152h-30.48V97.86H225v5.87h-22.23v17.12h21.06zm20.26 8.36l-5.63 17h-7.24l18.41-54.19h8.44l18.5 54.19h-7.47l-5.79-17zm17.77-5.47l-5.31-15.6c-1.21-3.54-2-6.75-2.81-9.89h-.16c-.8 3.22-1.69 6.51-2.73 9.81l-5.31 15.68zm26.77-25.72h-16.48v-5.95h40.12v5.95h-16.56V152h-7.08zm46.71-5.31a81 81 0 0 1 13.43-1c6.91 0 12 1.61 15.2 4.5a14.57 14.57 0 0 1 4.74 11.34c0 4.9-1.45 8.76-4.18 11.58-3.7 3.94-9.73 5.95-16.56 5.95a24.08 24.08 0 0 1-5.63-.48V152h-7zm7 26.13a23.44 23.44 0 0 0 5.79.56c8.44 0 13.59-4.1 13.59-11.58 0-7.16-5.06-10.61-12.78-10.61a29.38 29.38 0 0 0-6.59.56zm35.77-26.77h7v48.32h23.15V152h-30.15zM424.82 135l-5.63 17H412l18.41-54.19h8.44L457.3 152h-7.48L444 135zm17.77-5.47l-5.31-15.6c-1.21-3.54-2-6.75-2.81-9.89h-.16c-.8 3.22-1.69 6.51-2.73 9.81l-5.31 15.68zM471 152v-23l-17.16-31.14h8l7.64 15c2.09 4.1 3.7 7.4 5.39 11.18h.13c1.53-3.54 3.38-7.08 5.47-11.18l7.8-15h8L478 129v23zm58.89-25.36h-21.06v19.54h23.47V152h-30.47V97.86h29.27v5.87h-22.27v17.12h21.06zm11.5-28.06a72.85 72.85 0 0 1 13.43-1.13c7.48 0 12.3 1.37 15.68 4.42a13.5 13.5 0 0 1 4.26 10.29c0 7.16-4.5 11.9-10.21 13.83v.24c4.18 1.45 6.67 5.31 8 10.93 1.77 7.56 3.06 12.78 4.18 14.87h-7.24c-.88-1.53-2.09-6.19-3.62-12.94-1.61-7.48-4.5-10.29-10.85-10.53h-6.59V152h-7zm7 24.68h7.16c7.48 0 12.22-4.1 12.22-10.29 0-7-5.06-10-12.46-10.13a28.76 28.76 0 0 0-6.91.64zm35.28 20.26a24.78 24.78 0 0 0 12.54 3.54c7.16 0 11.34-3.78 11.34-9.25 0-5.07-2.89-8-10.21-10.77-8.84-3.14-14.31-7.72-14.31-15.36 0-8.44 7-14.71 17.53-14.71a24.63 24.63 0 0 1 12 2.65l-1.93 5.71a21.58 21.58 0 0 0-10.29-2.57c-7.4 0-10.21 4.42-10.21 8.12 0 5.06 3.3 7.56 10.77 10.45 9.17 3.54 13.83 8 13.83 15.92 0 8.36-6.19 15.6-19 15.6-5.23 0-10.93-1.53-13.83-3.46zm64.64-45.66V152h-7V97.86zM660.53 152V97.86h7.64l17.37 27.42a153.37 153.37 0 0 1 9.73 17.61l.16-.08c-.64-7.24-.8-13.83-.8-22.27V97.86h6.59V152h-7.08l-17.21-27.5a172.08 172.08 0 0 1-10.13-18.09l-.24.08c.4 6.83.56 13.35.56 22.35V152zm51.93-8.48a24.78 24.78 0 0 0 12.54 3.54c7.16 0 11.34-3.78 11.34-9.25 0-5.07-2.89-8-10.21-10.77-8.84-3.14-14.31-7.72-14.31-15.36 0-8.44 7-14.71 17.53-14.71a24.62 24.62 0 0 1 12 2.65l-1.93 5.71a21.58 21.58 0 0 0-10.29-2.57c-7.4 0-10.21 4.42-10.21 8.12 0 5.06 3.3 7.56 10.77 10.45 9.17 3.54 13.83 8 13.83 15.92 0 8.36-6.19 15.6-19 15.6-5.23 0-10.93-1.53-13.83-3.46zm40.6-45.02a81 81 0 0 1 13.43-1c6.91 0 12 1.61 15.2 4.5a14.57 14.57 0 0 1 4.74 11.34c0 4.9-1.45 8.76-4.18 11.58-3.7 3.94-9.73 5.95-16.56 5.95a24.09 24.09 0 0 1-5.63-.48V152h-7zm7 26.13a23.45 23.45 0 0 0 5.79.56c8.44 0 13.59-4.1 13.59-11.58 0-7.16-5.07-10.61-12.78-10.61a29.38 29.38 0 0 0-6.59.56zm42.77-26.77V152h-7V97.86zm12.17.72a72.85 72.85 0 0 1 13.43-1.13c7.48 0 12.3 1.37 15.68 4.42a13.5 13.5 0 0 1 4.26 10.29c0 7.16-4.5 11.9-10.21 13.83v.24c4.18 1.45 6.67 5.31 8 10.93 1.77 7.56 3.05 12.78 4.18 14.87h-7.24c-.88-1.53-2.09-6.19-3.62-12.94-1.61-7.48-4.5-10.29-10.85-10.53H822V152h-7zm7 24.68h7.16c7.48 0 12.22-4.1 12.22-10.29 0-7-5.07-10-12.46-10.13a28.77 28.77 0 0 0-6.92.64zm64.36 3.38h-21.07v19.54h23.48V152H858.3V97.86h29.26v5.87h-22.27v17.12h21.06zm74.84-2.25c0 18.65-11.34 28.54-25.17 28.54-14.31 0-24.36-11.09-24.36-27.5 0-17.21 10.69-28.46 25.17-28.46 14.8.03 24.36 11.34 24.36 27.42zm-42 .88c0 11.58 6.27 21.95 17.29 21.95s17.37-10.21 17.37-22.51c0-10.77-5.63-22-17.29-22s-17.42 10.66-17.42 22.56zm59.37-21.46h-16.48v-5.95h40.12v5.95h-16.57V152h-7.08zm36.66-5.95v22.67h26.21V97.86h7.08V152h-7.08v-25.36h-26.21V152h-7V97.86zm73.48 28.78h-21.06v19.54h23.48V152h-30.47V97.86h29.26v5.87h-22.27v17.12h21.06zm11.49-28.06a72.85 72.85 0 0 1 13.43-1.13c7.48 0 12.3 1.37 15.68 4.42a13.5 13.5 0 0 1 4.26 10.29c0 7.16-4.5 11.9-10.21 13.83v.24c4.18 1.45 6.67 5.31 8 10.93 1.77 7.56 3.05 12.78 4.18 14.87h-7.24c-.88-1.53-2.09-6.19-3.62-12.94-1.61-7.48-4.5-10.29-10.85-10.53h-6.59V152h-7zm7 24.68h7.16c7.48 0 12.22-4.1 12.22-10.29 0-7-5.07-10-12.46-10.13a28.77 28.77 0 0 0-6.92.64zm35.29 20.26a24.78 24.78 0 0 0 12.54 3.54c7.16 0 11.34-3.78 11.34-9.25 0-5.07-2.89-8-10.21-10.77-8.84-3.14-14.31-7.72-14.31-15.36 0-8.44 7-14.71 17.53-14.71a24.62 24.62 0 0 1 12 2.65l-1.93 5.71a21.58 21.58 0 0 0-10.29-2.57c-7.4 0-10.21 4.42-10.21 8.12 0 5.06 3.3 7.56 10.77 10.45 9.17 3.54 13.83 8 13.83 15.92 0 8.36-6.19 15.6-19 15.6-5.23 0-10.93-1.53-13.83-3.46z" id="Layer_1-2" data-name="Layer 1"/></g></svg>