<svg xmlns="http://www.w3.org/2000/svg" viewBox="0 0 868.56 384.9"><defs><style>.cls-1{fill: #fff;stroke: #000;stroke-miterlimit: 10; }</style></defs><title>Asset 8</title><g id="Layer_2" data-name="Layer 2"><g id="Layer_1-2" data-name="Layer 1"><path class="cls-2" d="M40.06,85.17V50.11L13.19,1.17H25.68l12,23.46c3.28,6.43,5.8,11.61,8.45,17.54h.25c2.4-5.55,5.3-11.1,8.58-17.54L67.18,1.17H79.31L51.06,49.4V85.17Z"/><path class="cls-2" d="M155.51,42.78c0,28.77-17.48,44-38.81,44-22.07,0-37.57-17.11-37.57-42.41C79.14,17.86,95.63.5,117.94.5,140.76.5,155.51,18,155.51,42.78ZM90.67,44.15C90.67,62,100.34,78,117.32,78s26.78-15.75,26.78-34.72c0-16.61-8.68-34-26.66-34S90.67,25.79,90.67,44.15Z"/><path class="cls-2" d="M180.06,2.17V51.64c0,18.72,8.35,26.66,19.56,26.66,12.46,0,20.44-8.18,20.44-26.66V2.17h11V50.9c0,25.67-13.6,36.21-31.81,36.21-17.22,0-30.19-9.8-30.19-35.71V2.17Z"/><path class="cls-2" d="M346.48,48.86c-.61-11.53-1.35-25.39-1.23-35.69h-.5c-2.84,9.76-6.3,20.13-10.5,31.62l-14.7,40.38H311.4L297.94,45.52c-4-11.73-7.29-22.48-9.63-32.36h-.38c-.25,10.3-.86,24.16-1.59,36.55l-2.21,35.45H273.8l5.86-84h13.6L307.6,41.84c3.49,10.36,6.36,19.59,8.48,28.32h.37c2.12-8.48,5.12-17.72,8.86-28.32l15-40.68h13.6l5.23,84H348.56Z"/><path class="cls-2" d="M387.06,1.17v84h-11v-84Z"/><path class="cls-2" d="M403.89,72.29a38.23,38.23,0,0,0,19.34,5.46c11,0,17.48-5.83,17.48-14.26,0-7.81-4.46-12.28-15.75-16.62C411.32,42,402.89,35,402.89,23.19c0-13,10.79-22.69,27-22.69,8.56,0,14.75,2,18.48,4.09l-3,8.8a33.29,33.29,0,0,0-15.87-4c-11.41,0-15.75,6.82-15.75,12.52,0,7.81,5.08,11.66,16.62,16.12,14.13,5.46,21.33,12.28,21.33,24.55,0,12.9-9.55,24.05-29.26,24.05-8.06,0-16.86-2.36-21.33-5.33Z"/><path class="cls-2" d="M465,72.29a38.23,38.23,0,0,0,19.34,5.46c11,0,17.48-5.83,17.48-14.26,0-7.81-4.46-12.28-15.75-16.62C472.46,42,464,35,464,23.19c0-13,10.79-22.69,27-22.69,8.56,0,14.75,2,18.48,4.09l-3,8.8a33.29,33.29,0,0,0-15.87-4c-11.41,0-15.75,6.82-15.75,12.52,0,7.81,5.08,11.66,16.62,16.12,14.14,5.46,21.33,12.28,21.33,24.55,0,12.9-9.55,24.05-29.26,24.05-8.06,0-16.86-2.36-21.33-5.33Z"/><path class="cls-2" d="M573.06,15.17h.39l-13.78,7.44-2.07-8.17,17.32-9.27h9.15v80h-11Z"/><path class="cls-2" d="M667.25,44.27c0,27.4-10.17,42.53-28,42.53-15.75,0-26.41-14.75-26.66-41.41,0-27,11.66-41.91,28-41.91C657.58,3.48,667.25,18.6,667.25,44.27Zm-43.77,1.24c0,21,6.45,32.86,16.37,32.86,11.16,0,16.49-13,16.49-33.6,0-19.84-5.08-32.86-16.37-32.86C630.43,11.91,623.49,23.56,623.49,45.51Z"/><path class="cls-2" d="M730.86,44.27c0,27.4-10.17,42.53-28,42.53-15.75,0-26.41-14.75-26.66-41.41,0-27,11.66-41.91,28-41.91C721.19,3.48,730.86,18.6,730.86,44.27Zm-43.77,1.24c0,21,6.45,32.86,16.37,32.86,11.16,0,16.49-13,16.49-33.6,0-19.84-5.08-32.86-16.37-32.86C694,11.91,687.09,23.56,687.09,45.51Z"/><path class="cls-2" d="M777.24,27.53c0,17-8.93,25.42-19.34,25.42-10,0-18.72-8.06-18.85-24.3s8.8-25.17,19.47-25.17C769.8,3.48,777.24,12.16,777.24,27.53Zm-29.51.74c-.25,10.29,3.6,18.1,10.42,18.1,7.19,0,10.42-7.69,10.42-18.35,0-9.8-2.85-18-10.42-18C751.33,10,747.73,18.11,747.73,28.27Zm9.53,57.89,47.18-83h6.92l-47.18,83Zm72.43-25.28c0,17-8.93,25.42-19.22,25.42-10,0-18.72-8.06-18.85-24.18s8.8-25.29,19.47-25.29C822.37,36.83,829.69,45.51,829.69,60.88Zm-29.51.74c-.12,10.29,3.84,18.1,10.54,18.1,7.19,0,10.42-7.69,10.42-18.35,0-9.8-2.85-18-10.42-18C803.9,43.4,800.18,51.46,800.18,61.63Z"/><path class="cls-2" d="M145.22,191.58c0,28.77-17.48,44-38.81,44-22.07,0-37.57-17.11-37.57-42.41,0-26.53,16.49-43.89,38.81-43.89C130.46,149.3,145.22,166.78,145.22,191.58Zm-64.85,1.36C80.37,210.8,90,226.8,107,226.8s26.78-15.75,26.78-34.72c0-16.61-8.68-34-26.66-34S80.37,174.59,80.37,192.95Z"/><path class="cls-2" d="M159.06,151.17h45v9h-34v27h32v9h-32v38h-11Z"/><path class="cls-2" d="M257.06,160.17h-26v-9h62v9h-25v74h-11Z"/><path class="cls-2" d="M313.06,150.17v35h40v-35h12v84h-12v-39h-40v39h-11v-84Z"/><path class="cls-2" d="M426.06,195.17h-32v30h36v9h-47v-83h45v9h-34v26h32Z"/><path class="cls-2" d="M469.11,221.09a38.23,38.23,0,0,0,19.34,5.46c11,0,17.48-5.83,17.48-14.26,0-7.81-4.46-12.28-15.75-16.62-13.64-4.84-22.07-11.9-22.07-23.68,0-13,10.79-22.69,27-22.69,8.56,0,14.75,2,18.48,4.09l-3,8.8a33.29,33.29,0,0,0-15.87-4c-11.41,0-15.75,6.82-15.75,12.52,0,7.81,5.08,11.66,16.62,16.12,14.14,5.46,21.33,12.28,21.33,24.55,0,12.9-9.55,24.05-29.26,24.05-8.06,0-16.86-2.36-21.33-5.33Z"/><path class="cls-2" d="M543.06,150.17v35h40v-35h11v84h-11v-39h-40v39h-11v-84Z"/><path class="cls-2" d="M684,191.58c0,28.77-17.48,44-38.81,44-22.07,0-37.57-17.11-37.57-42.41,0-26.53,16.49-43.89,38.81-43.89C669.24,149.3,684,166.78,684,191.58Zm-64.85,1.36c0,17.85,9.67,33.85,26.66,33.85s26.78-15.75,26.78-34.72c0-16.61-8.68-34-26.66-34S619.14,174.59,619.14,192.95Z"/><path class="cls-2" d="M711.06,160.17h-26v-9h62v9h-25v74h-11Z"/><path class="cls-2" d="M754.3,221.09a38.23,38.23,0,0,0,19.34,5.46c11,0,17.48-5.83,17.48-14.26,0-7.81-4.46-12.28-15.75-16.62-13.64-4.84-22.07-11.9-22.07-23.68,0-13,10.79-22.69,27-22.69,8.56,0,14.75,2,18.48,4.09l-3,8.8a33.29,33.29,0,0,0-15.87-4c-11.41,0-15.75,6.82-15.75,12.52,0,7.81,5.08,11.66,16.62,16.12,14.14,5.46,21.33,12.28,21.33,24.55,0,12.9-9.55,24.05-29.26,24.05-8.06,0-16.86-2.36-21.33-5.33Z"/><path class="cls-2" d="M27.06,383.17V346.92L.84,299.17H13l11.69,22.89c3.2,6.28,5.66,11.32,8.25,17.11h.25c2.34-5.42,5.17-10.83,8.37-17.11l11.94-22.89H66.31L38.06,347.4v35.77Z"/><path class="cls-2" d="M142.74,340.38c0,28.77-17.48,44-38.81,44-22.07,0-37.57-17.11-37.57-42.41,0-26.53,16.49-43.89,38.81-43.89C128,298.1,142.74,315.58,142.74,340.38Zm-64.85,1.36c0,17.85,9.67,33.85,26.66,33.85s26.78-15.75,26.78-34.72c0-16.61-8.68-34-26.66-34S77.89,323.39,77.89,341.75Z"/><path class="cls-2" d="M167.06,299.17v49.47c0,18.72,8.35,26.66,19.56,26.66,12.46,0,20.44-8.18,20.44-26.66V299.17h11V347.9c0,25.67-13.6,36.21-31.81,36.21-17.22,0-30.19-9.8-30.19-35.71V299.17Z"/><path class="cls-2" d="M263.06,300.58A154.48,154.48,0,0,1,286,298.84c15.5,0,26.53,3.6,33.85,10.42s11.78,16.49,11.78,30-4.22,24.8-12,32.49-20.71,12-37,12a174.08,174.08,0,0,1-19.59-1Zm11,73.9a68.1,68.1,0,0,0,10.91.62c23.06,0,35.59-12.9,35.59-35.46.12-19.71-11-32.24-33.85-32.24a61.27,61.27,0,0,0-12.65,1.12Z"/><path class="cls-2" d="M417.27,340.38c0,28.77-17.48,44-38.81,44-22.07,0-37.57-17.11-37.57-42.41,0-26.53,16.49-43.89,38.81-43.89C402.52,298.1,417.27,315.58,417.27,340.38Zm-64.85,1.36c0,17.85,9.67,33.85,26.66,33.85s26.78-15.75,26.78-34.72c0-16.61-8.68-34-26.66-34S352.42,323.39,352.42,341.75Z"/><path class="cls-2" d="M431.06,383.17v-84h12.88l26.34,42.5A239.37,239.37,0,0,1,485,369l.24-.12c-1-11.22-1.22-21.44-1.22-34.52V299.17h10v84H482l-26.1-42.62a268.23,268.23,0,0,1-15.37-28l-.37.12c.61,10.59.85,20.69.85,34.65v35.89Z"/><path class="cls-2" d="M525.65,298.1c-2.85,10.42-8.18,23.68-11.66,29.39l-6.94.87a175.56,175.56,0,0,0,7.32-29.14Z"/><path class="cls-2" d="M559.06,309.17h-26v-10h62v10h-25v74h-11Z"/><path class="cls-2" d="M641.06,309.17h-25v-10h62v10h-26v74h-11Z"/><path class="cls-2" d="M691.6,357.17l-8.58,26h-11.6l28.54-84H713l28.66,84h-12l-8.83-26Zm27.14-9-8.12-23.87c-1.85-5.41-3.08-10.33-4.31-15.13h-.25c-1.23,4.92-2.58,10-4.18,15l-8.12,24Z"/><path class="cls-2" d="M754.06,299.17h11v40h.37c2.21-3.2,4.43-6.15,6.52-8.86l25.35-31.14h14.54L781,334.81l33.25,48.36h-13l-28.07-41.25-8.09,9.22v32h-11Z"/><path class="cls-2" d="M864.06,344.17h-32v30h36v9h-47v-84h45v9h-34v27h32Z"/></g></g></svg>  
